# 3ds Max Wavefront OBJ Exporter v0.97b - (c)2007 guruware
# File Created: 22.08.2011 10:18:58

mtllib KinectStand.mtl

#
# object KinectStand
#

v  3.7295 21.8628 5.7287
v  3.7313 21.8628 5.6884
v  3.7263 21.8628 5.6231
v  3.6716 21.8628 5.4745
v  3.7025 21.8628 5.5367
v  3.6389 21.8628 5.4281
v  3.5876 21.8628 5.3755
v  3.4621 21.8628 5.3017
v  3.5274 21.8628 5.3326
v  3.3950 21.8628 5.2831
v  3.5638 21.8628 6.0257
v  3.6931 21.8628 5.8622
v  3.6652 21.8628 5.9127
v  3.7127 21.8628 5.8116
v  3.7234 21.8628 5.7699
v  3.5638 21.6128 6.0257
v  3.6652 21.6128 5.9127
v  3.2022 21.8628 6.3538
v  3.2022 21.6128 6.3538
v  2.7822 21.8628 6.6642
v  2.7822 21.6128 6.6642
v  2.3370 21.8628 6.9269
v  2.3370 21.6128 6.9269
v  1.8746 21.8628 7.1395
v  1.8746 21.6128 7.1395
v  1.4030 21.8628 7.3015
v  1.4030 21.6128 7.3015
v  0.9300 21.8628 7.4138
v  0.9300 21.6128 7.4138
v  0.0000 21.8628 7.4993
v  0.0000 21.6128 7.4993
v  3.3950 21.6128 5.2831
v  3.4621 21.6128 5.3017
v  3.5274 21.6128 5.3326
v  3.5876 21.6128 5.3755
v  3.6389 21.6128 5.4281
v  3.6716 21.6128 5.4745
v  3.7025 21.6128 5.5367
v  3.7263 21.6128 5.6231
v  3.7313 21.6128 5.6882
v  3.6931 21.6128 5.8622
v  3.7127 21.6128 5.8116
v  3.7234 21.6128 5.7699
v  3.7295 21.6128 5.7287
v  0.0000 21.8628 4.9575
v  0.8359 21.8628 4.9974
v  0.8359 21.6128 4.9974
v  0.0000 21.6128 4.9575
v  2.9946 21.6047 5.2080
v  2.9985 21.8725 5.1941
v  3.5611 9.6161 5.6906
v  3.5464 9.6161 5.6072
v  3.5464 21.6161 5.6072
v  3.5611 21.6161 5.6906
v  3.5041 9.6161 5.5339
v  3.5041 21.6161 5.5339
v  3.4392 9.6161 5.4794
v  3.4392 21.6161 5.4794
v  3.3596 9.6161 5.4505
v  3.3596 21.6161 5.4505
v  3.2749 9.6161 5.4505
v  3.2749 21.6161 5.4505
v  3.1953 9.6161 5.4794
v  3.1953 21.6161 5.4794
v  3.1304 9.6161 5.5339
v  3.1304 21.6161 5.5339
v  3.0880 9.6161 5.6072
v  3.0880 21.6161 5.6072
v  3.0733 9.6161 5.6906
v  3.0733 21.6161 5.6906
v  3.0880 9.6161 5.7741
v  3.0880 21.6161 5.7741
v  3.1304 9.6161 5.8474
v  3.1304 21.6161 5.8474
v  3.1953 9.6161 5.9019
v  3.1953 21.6161 5.9019
v  3.2749 9.6161 5.9308
v  3.2749 21.6161 5.9308
v  3.3596 9.6161 5.9308
v  3.3596 21.6161 5.9308
v  3.4392 9.6161 5.9019
v  3.4392 21.6161 5.9019
v  3.5041 9.6161 5.8474
v  3.5041 21.6161 5.8474
v  3.5464 9.6161 5.7741
v  3.5464 21.6161 5.7741
v  1.2306 21.8628 5.0163
v  1.7077 21.8628 5.0391
v  2.5903 21.5988 5.1527
v  2.1496 21.6047 5.0890
v  2.1536 21.8725 5.0750
v  2.5976 21.8795 5.1287
v  1.2306 21.6128 5.0163
v  1.7077 21.6128 5.0391
v  -3.6931 21.8628 5.8622
v  -3.6652 21.8628 5.9127
v  -3.5638 21.8628 6.0257
v  -3.4621 21.8628 5.3017
v  -3.3950 21.8628 5.2831
v  -3.5274 21.8628 5.3326
v  -3.5876 21.8628 5.3755
v  -3.6716 21.8628 5.4745
v  -3.6389 21.8628 5.4281
v  -3.7295 21.8628 5.7287
v  -3.7025 21.8628 5.5367
v  -3.7263 21.8628 5.6231
v  -3.7313 21.8628 5.6884
v  -3.7127 21.8628 5.8116
v  -3.7234 21.8628 5.7699
v  -3.6652 21.6128 5.9127
v  -3.5638 21.6128 6.0257
v  -3.2022 21.6128 6.3538
v  -3.2022 21.8628 6.3538
v  -2.7822 21.8628 6.6642
v  -2.7822 21.6128 6.6642
v  -2.3370 21.8628 6.9269
v  -2.3370 21.6128 6.9269
v  -1.8746 21.6128 7.1395
v  -1.8746 21.8628 7.1395
v  -1.4030 21.6128 7.3015
v  -1.4030 21.8628 7.3015
v  -0.9300 21.6128 7.4138
v  -0.9300 21.8628 7.4138
v  -3.7234 21.6128 5.7699
v  -3.7295 21.6128 5.7287
v  -3.7313 21.6128 5.6882
v  -3.7127 21.6128 5.8116
v  -3.5274 21.6128 5.3326
v  -3.4621 21.6128 5.3017
v  -3.3950 21.6128 5.2831
v  -3.5876 21.6128 5.3755
v  -3.6389 21.6128 5.4281
v  -3.6716 21.6128 5.4745
v  -3.7025 21.6128 5.5367
v  -3.7263 21.6128 5.6231
v  -3.6931 21.6128 5.8622
v  -0.8359 21.6128 4.9974
v  -0.8359 21.8628 4.9974
v  -2.9985 21.8725 5.1941
v  -2.9946 21.6047 5.2080
v  -3.5611 9.6161 5.6906
v  -3.5611 21.6161 5.6906
v  -3.5464 21.6161 5.6072
v  -3.5464 9.6161 5.6072
v  -3.5041 21.6161 5.5339
v  -3.5041 9.6161 5.5339
v  -3.4392 21.6161 5.4794
v  -3.4392 9.6161 5.4794
v  -3.3596 21.6161 5.4505
v  -3.3596 9.6161 5.4505
v  -3.2749 21.6161 5.4505
v  -3.2749 9.6161 5.4505
v  -3.1953 21.6161 5.4794
v  -3.1953 9.6161 5.4794
v  -3.1304 21.6161 5.5339
v  -3.1304 9.6161 5.5339
v  -3.0880 21.6161 5.6072
v  -3.0880 9.6161 5.6072
v  -3.0733 21.6161 5.6906
v  -3.0733 9.6161 5.6906
v  -3.0880 21.6161 5.7741
v  -3.0880 9.6161 5.7741
v  -3.1304 21.6161 5.8474
v  -3.1304 9.6161 5.8474
v  -3.1953 21.6161 5.9019
v  -3.1953 9.6161 5.9019
v  -3.2749 21.6161 5.9308
v  -3.2749 9.6161 5.9308
v  -3.3596 21.6161 5.9308
v  -3.3596 9.6161 5.9308
v  -3.4392 21.6161 5.9019
v  -3.4392 9.6161 5.9019
v  -3.5041 21.6161 5.8474
v  -3.5041 9.6161 5.8474
v  -3.5464 21.6161 5.7741
v  -3.5464 9.6161 5.7741
v  -1.2306 21.8628 5.0163
v  -1.7077 21.8628 5.0391
v  -2.5903 21.5988 5.1527
v  -2.5976 21.8795 5.1287
v  -2.1536 21.8725 5.0750
v  -2.1496 21.6047 5.0890
v  -1.7077 21.6128 5.0391
v  -1.2306 21.6128 5.0163
# 184 vertices

vn 0.0000 1.0000 -0.0000
vn 0.0168 0.9999 -0.0038
vn 0.0068 1.0000 0.0033
vn 0.7091 0.0000 0.7051
vn 0.8150 0.0000 0.5794
vn 0.6339 0.0000 0.7734
vn 0.5520 0.0000 0.8339
vn 0.4636 0.0000 0.8860
vn 0.3718 0.0000 0.9283
vn 0.2782 0.0000 0.9605
vn 0.1616 0.0000 0.9869
vn -0.0000 0.0000 1.0000
vn 0.0000 0.0000 1.0000
vn 0.0101 -0.9999 0.0018
vn 0.0000 -1.0000 -0.0000
vn 0.3481 0.0000 -0.9375
vn 0.2363 -0.0100 -0.9716
vn 0.2425 0.0000 -0.9702
vn 0.5059 0.0000 -0.8626
vn 0.6509 0.0000 -0.7592
vn 0.7690 0.0000 -0.6392
vn 0.8588 0.0000 -0.5123
vn 0.9342 0.0000 -0.3566
vn 0.9852 0.0000 -0.1716
vn 0.9999 0.0000 -0.0163
vn 0.9999 -0.0000 -0.0167
vn 0.9954 0.0000 0.0961
vn 0.9954 -0.0000 0.0958
vn 0.9801 0.0000 0.1984
vn 0.9523 0.0000 0.3052
vn 0.9060 0.0000 0.4232
vn 0.0000 0.0000 -1.0000
vn 0.0477 0.0000 -0.9989
vn 0.1678 -0.0603 -0.9840
vn 0.1784 -0.0443 -0.9830
vn 1.0000 0.0000 0.0000
vn 0.9397 0.0000 -0.3420
vn 0.7660 0.0000 -0.6428
vn 0.5000 0.0000 -0.8660
vn 0.1736 0.0000 -0.9848
vn -0.1736 0.0000 -0.9848
vn -0.5000 0.0000 -0.8660
vn -0.7660 0.0000 -0.6428
vn -0.9397 0.0000 -0.3420
vn -1.0000 0.0000 -0.0000
vn -0.9397 0.0000 0.3420
vn -0.7660 0.0000 0.6428
vn -0.5000 0.0000 0.8660
vn -0.1736 0.0000 0.9848
vn 0.1736 0.0000 0.9848
vn 0.5000 0.0000 0.8660
vn 0.7660 0.0000 0.6428
vn 0.9397 0.0000 0.3420
vn -0.0084 1.0000 0.0028
vn 0.0175 0.9998 0.0029
vn 0.0080 0.9999 0.0086
vn 0.1323 -0.0819 -0.9878
vn 0.1169 -0.0450 -0.9921
vn 0.1085 -0.0598 -0.9923
vn 0.1331 -0.0813 -0.9878
vn -0.0184 0.9998 0.0091
vn -0.0005 1.0000 0.0024
vn 0.0028 1.0000 0.0074
vn -0.0042 0.9999 0.0103
vn 0.0072 -1.0000 0.0057
vn 0.0161 -0.9999 0.0042
vn -0.0010 -1.0000 0.0035
vn -0.0170 -0.9998 0.0061
vn -0.0017 -1.0000 0.0060
vn 0.0055 -0.9999 0.0086
vn -0.0071 -1.0000 0.0024
vn 0.0803 0.0000 -0.9968
vn 0.0749 -0.0092 -0.9971
vn -0.0000 -1.0000 0.0000
vn -0.0000 -1.0000 -0.0000
vn -0.0068 1.0000 0.0033
vn -0.0168 0.9999 -0.0038
vn -0.7091 0.0000 0.7051
vn -0.8150 0.0000 0.5794
vn -0.6339 0.0000 0.7734
vn -0.5520 0.0000 0.8339
vn -0.4636 0.0000 0.8860
vn -0.3718 0.0000 0.9283
vn -0.2782 0.0000 0.9605
vn -0.1616 0.0000 0.9869
vn -0.0101 -0.9999 0.0018
vn -0.3481 0.0000 -0.9375
vn -0.2425 0.0000 -0.9702
vn -0.2363 -0.0100 -0.9716
vn -0.5059 0.0000 -0.8626
vn -0.6509 0.0000 -0.7592
vn -0.7690 0.0000 -0.6392
vn -0.8588 0.0000 -0.5123
vn -0.9342 0.0000 -0.3566
vn -0.9852 0.0000 -0.1716
vn -0.9999 -0.0000 -0.0167
vn -0.9999 0.0000 -0.0163
vn -0.9954 -0.0000 0.0958
vn -0.9954 0.0000 0.0961
vn -0.9801 0.0000 0.1984
vn -0.9523 0.0000 0.3052
vn -0.9060 0.0000 0.4232
vn -0.0477 0.0000 -0.9989
vn -0.1784 -0.0443 -0.9830
vn -0.1678 -0.0603 -0.9840
vn -1.0000 0.0000 0.0000
vn 1.0000 0.0000 -0.0000
vn 0.0084 1.0000 0.0028
vn -0.0175 0.9998 0.0029
vn -0.0080 0.9999 0.0086
vn -0.1323 -0.0819 -0.9878
vn -0.1331 -0.0813 -0.9878
vn -0.1085 -0.0598 -0.9923
vn -0.1169 -0.0450 -0.9921
vn 0.0184 0.9998 0.0091
vn 0.0042 0.9999 0.0103
vn -0.0028 1.0000 0.0074
vn 0.0005 1.0000 0.0024
vn -0.0072 -1.0000 0.0057
vn -0.0161 -0.9999 0.0042
vn 0.0010 -1.0000 0.0035
vn -0.0055 -0.9999 0.0086
vn 0.0017 -1.0000 0.0060
vn 0.0170 -0.9998 0.0061
vn 0.0071 -1.0000 0.0024
vn -0.0749 -0.0092 -0.9971
vn -0.0803 0.0000 -0.9968
# 127 vertex normals

vt 0.2200 1.0651 0.0000
vt 0.2157 1.0606 0.0000
vt 0.2064 1.0506 0.0000
vt 0.1754 1.0144 0.0000
vt 0.1958 1.0389 0.0000
vt 0.1659 1.0020 0.0000
vt 0.1571 0.9900 0.0000
vt 0.1368 0.9581 0.0000
vt 0.1425 0.9678 0.0000
vt 0.1325 0.9494 0.0000
vt 0.2676 1.1037 0.0000
vt 0.2459 1.0890 0.0000
vt 0.2542 1.0955 0.0000
vt 0.2368 1.0811 0.0000
vt 0.2271 1.0720 0.0000
vt 0.0000 0.3750 0.0000
vt 1.0000 0.3750 0.0000
vt 1.0000 0.3737 0.0000
vt 0.0000 0.3737 0.0000
vt 0.0000 0.3921 0.0000
vt 1.0000 0.3921 0.0000
vt 0.0000 0.4103 0.0000
vt 1.0000 0.4103 0.0000
vt 0.0000 0.4279 0.0000
vt 1.0000 0.4279 0.0000
vt 0.0000 0.4446 0.0000
vt 1.0000 0.4452 0.0000
vt 0.0000 0.4604 0.0000
vt 1.0000 0.4604 0.0000
vt 0.0000 0.4749 0.0000
vt 1.0000 0.4749 0.0000
vt 0.0000 0.5000 0.0000
vt 1.0000 0.5000 0.0000
vt 0.1382 0.9568 0.0000
vt 0.1468 0.9639 0.0000
vt 0.1723 0.9765 0.0000
vt 0.1886 0.9817 0.0000
vt 0.2069 0.9861 0.0000
vt 0.2269 0.9896 0.0000
vt 0.2701 0.9936 0.0000
vt 0.2899 0.9940 0.0000
vt 0.4111 0.9753 0.0000
vt 0.3773 0.9853 0.0000
vt 0.3576 0.9890 0.0000
vt 0.3367 0.9917 0.0000
vt 0.3148 0.9934 0.0000
vt 0.2925 0.9941 0.0000
vt 0.0000 0.0511 0.0000
vt 1.0000 0.0548 0.0000
vt 1.0000 0.0251 0.0000
vt 0.0000 0.0251 0.0000
vt 0.0000 0.0802 0.0000
vt 1.0000 0.0802 0.0000
vt 0.0000 0.1115 0.0000
vt 1.0000 0.1250 0.0000
vt 0.0000 0.1434 0.0000
vt 1.0000 0.1434 0.0000
vt 0.0000 0.1745 0.0000
vt 1.0000 0.1745 0.0000
vt 0.0000 0.1952 0.0000
vt 1.0000 0.2032 0.0000
vt 0.0000 0.2286 0.0000
vt 1.0000 0.2286 0.0000
vt 0.0000 0.2500 0.0000
vt 1.0000 0.2500 0.0000
vt 0.0000 0.2628 0.0000
vt 1.0000 0.2628 0.0000
vt 0.0000 0.2772 0.0000
vt 1.0000 0.2772 0.0000
vt 0.0000 0.2930 0.0000
vt 1.0000 0.3048 0.0000
vt 0.0000 0.3103 0.0000
vt 1.0000 0.3286 0.0000
vt 0.0000 0.3478 0.0000
vt 1.0000 0.3873 0.0000
vt 0.0000 0.4875 0.0000
vt 0.0000 0.4906 0.0000
vt 1.0000 0.4906 0.0000
vt 1.0000 0.4875 0.0000
vt 1.0000 0.5125 0.0000
vt 1.0000 0.5094 0.0000
vt 0.0000 0.5094 0.0000
vt 0.0000 0.5125 0.0000
vt 0.7500 0.0000 1.0000
vt 0.8056 0.0000 1.0000
vt 0.8056 1.0000 1.0000
vt 0.7500 1.0000 1.0000
vt 0.8611 0.0000 1.0000
vt 0.8611 1.0000 1.0000
vt 0.9167 0.0000 1.0000
vt 0.9167 1.0000 1.0000
vt 0.9722 0.0000 1.0000
vt 0.9722 1.0000 1.0000
vt 1.0278 0.0000 1.0000
vt 1.0278 1.0000 1.0000
vt 0.0278 0.0000 1.0000
vt 0.0833 0.0000 1.0000
vt 0.0833 1.0000 1.0000
vt 0.0278 1.0000 1.0000
vt 0.1389 0.0000 1.0000
vt 0.1389 1.0000 1.0000
vt 0.1944 0.0000 1.0000
vt 0.1944 1.0000 1.0000
vt 0.2500 0.0000 1.0000
vt 0.2500 1.0000 1.0000
vt 0.3056 0.0000 1.0000
vt 0.3056 1.0000 1.0000
vt 0.3611 0.0000 1.0000
vt 0.3611 1.0000 1.0000
vt 0.4167 0.0000 1.0000
vt 0.4167 1.0000 1.0000
vt 0.4722 0.0000 1.0000
vt 0.4722 1.0000 1.0000
vt 0.5278 0.0000 1.0000
vt 0.5278 1.0000 1.0000
vt 0.5833 0.0000 1.0000
vt 0.5833 1.0000 1.0000
vt 0.6389 0.0000 1.0000
vt 0.6389 1.0000 1.0000
vt 0.6944 0.0000 1.0000
vt 0.6944 1.0000 1.0000
vt 0.8214 0.8830 -0.2500
vt 0.9330 0.7500 -0.2500
vt 0.9924 0.5868 -0.2500
vt 0.5000 1.0000 -0.2500
vt 0.9924 0.4132 -0.2500
vt 0.9330 0.2500 -0.2500
vt 0.6710 0.0302 -0.2500
vt 0.8214 0.1170 -0.2500
vt 0.5000 0.0000 -0.2500
vt 0.3290 0.0302 -0.2500
vt 0.0670 0.2500 -0.2500
vt 0.1786 0.1170 -0.2500
vt 0.0076 0.4132 -0.2500
vt 0.0076 0.5868 -0.2500
vt 0.1786 0.8830 -0.2500
vt 0.0670 0.7500 -0.2500
vt 0.3290 0.9698 -0.2500
vt 0.6710 0.9698 -0.2500
vt 0.3290 0.9698 0.2500
vt 0.1786 0.8830 0.2500
vt 0.0670 0.7500 0.2500
vt 0.6710 0.9698 0.2500
vt 0.0076 0.5868 0.2500
vt 0.0076 0.4132 0.2500
vt 0.1786 0.1170 0.2500
vt 0.0670 0.2500 0.2500
vt 0.3290 0.0302 0.2500
vt 0.5000 0.0000 0.2500
vt 0.8214 0.1170 0.2500
vt 0.6710 0.0302 0.2500
vt 0.9330 0.2500 0.2500
vt 0.9924 0.4132 0.2500
vt 0.9330 0.7500 0.2500
vt 0.9924 0.5868 0.2500
vt 0.8214 0.8830 0.2500
vt 0.5000 1.0000 0.2500
vt 0.0046 0.6281 0.0000
vt 0.4345 1.1196 0.0000
vt 0.4181 1.1375 0.0000
vt 0.0377 0.7257 0.0000
vt 0.1088 0.8935 0.0000
vt 0.3173 1.1279 0.0000
vt 1.0000 0.5063 0.0000
vt 1.0000 0.5031 0.0000
vt 0.0000 0.5031 0.0000
vt 0.0000 0.5063 0.0000
vt 0.0614 0.7816 0.0000
vt 0.3930 1.1449 0.0000
vt 0.3592 1.1417 0.0000
vt 0.0851 0.8376 0.0000
vt 0.5422 0.9266 0.0000
vt 0.1091 0.8941 0.0000
vt 0.7590 0.8172 0.0000
vt 0.0616 0.7822 0.0000
vt 0.0856 0.8387 0.0000
vt 0.6586 0.8737 0.0000
vt 0.8426 0.7575 0.0000
vt 0.9084 0.6953 0.0000
vt 0.0218 0.6127 0.0000
vt 1.0000 0.4937 0.0000
vt 0.0000 0.4937 0.0000
vt -0.0119 0.5793 0.0000
vt 0.4420 1.0914 0.0000
vt 0.9559 0.6312 0.0000
vt 0.0139 0.5563 0.0000
vt -0.0284 0.5306 0.0000
vt 0.4298 1.0050 0.0000
vt 0.9941 0.4998 0.0000
vt 0.0059 0.4998 0.0000
# 190 texture coords

g KinectStand
usemtl Laminate
s 1
f 1/1/1 2/2/1 3/3/1 4/4/1 
f 3/3/1 5/5/1 4/4/1 
f 4/4/1 6/6/1 7/7/1 8/8/1 
f 7/7/1 9/9/1 8/8/1 
f 8/8/1 10/10/2 11/11/3 12/12/1 
f 11/11/3 13/13/1 12/12/1 
f 4/4/1 8/8/1 12/12/1 1/1/1 
f 1/1/1 12/12/1 14/14/1 15/15/1 
s 2
f 11/16/4 16/17/4 17/18/5 13/19/5 
f 11/16/4 18/20/6 19/21/6 16/17/4 
f 20/22/7 21/23/7 19/21/6 18/20/6 
f 22/24/8 23/25/8 21/23/7 20/22/7 
f 22/24/8 24/26/9 25/27/9 23/25/8 
f 24/26/9 26/28/10 27/29/10 25/27/9 
f 26/28/10 28/30/11 29/31/11 27/29/10 
f 29/31/11 28/30/11 30/32/12 31/33/13 
s 1
f 32/10/14 33/34/15 34/35/15 35/36/15 
f 32/10/14 35/36/15 36/37/15 37/38/15 
f 32/10/14 37/38/15 38/39/15 39/40/15 
f 32/10/14 39/40/15 40/41/15 16/42/15 
f 17/43/15 16/42/15 40/41/15 41/44/15 
f 42/45/15 41/44/15 40/41/15 43/46/15 
f 43/46/15 40/41/15 44/47/15 
s 2
f 8/48/16 33/49/16 32/50/17 10/51/18 
f 9/52/19 34/53/19 33/49/16 8/48/16 
f 7/54/20 35/55/20 34/53/19 9/52/19 
f 6/56/21 36/57/21 35/55/20 7/54/20 
f 4/58/22 37/59/22 36/57/21 6/56/21 
f 4/58/22 5/60/23 38/61/23 37/59/22 
f 3/62/24 39/63/24 38/61/23 5/60/23 
f 3/62/24 2/64/25 40/65/26 39/63/24 
f 2/64/25 1/66/27 44/67/28 40/65/26 
f 1/66/27 15/68/29 43/69/29 44/67/28 
f 15/68/29 14/70/30 42/71/30 43/69/29 
f 14/70/30 12/72/31 41/73/31 42/71/30 
f 12/72/31 13/74/5 17/75/5 41/73/31 
f 45/76/32 46/77/33 47/78/33 48/79/32 
f 32/80/17 49/81/34 50/82/35 10/83/18 
usemtl Metal
f 51/84/36 52/85/37 53/86/37 54/87/36 
f 52/85/37 55/88/38 56/89/38 53/86/37 
f 55/88/38 57/90/39 58/91/39 56/89/38 
f 57/90/39 59/92/40 60/93/40 58/91/39 
f 59/92/40 61/94/41 62/95/41 60/93/40 
f 61/96/41 63/97/42 64/98/42 62/99/41 
f 63/97/42 65/100/43 66/101/43 64/98/42 
f 65/100/43 67/102/44 68/103/44 66/101/43 
f 67/102/44 69/104/45 70/105/45 68/103/44 
f 69/104/45 71/106/46 72/107/46 70/105/45 
f 71/106/46 73/108/47 74/109/47 72/107/46 
f 73/108/47 75/110/48 76/111/48 74/109/47 
f 75/110/48 77/112/49 78/113/49 76/111/48 
f 77/112/49 79/114/50 80/115/50 78/113/49 
f 79/114/50 81/116/51 82/117/51 80/115/50 
f 81/116/51 83/118/52 84/119/52 82/117/51 
f 83/118/52 85/120/53 86/121/53 84/119/52 
f 85/120/53 51/84/36 54/87/36 86/121/53 
s 1
f 83/122/15 81/123/15 79/124/15 51/125/15 
f 79/124/15 77/126/15 75/127/15 71/128/15 
f 75/127/15 73/129/15 71/128/15 
f 71/128/15 69/130/15 67/131/15 63/132/15 
f 67/131/15 65/133/15 63/132/15 
f 63/132/15 61/134/15 59/135/15 55/136/15 
f 59/135/15 57/137/15 55/136/15 
f 71/128/15 63/132/15 55/136/15 79/124/15 
f 55/136/15 52/138/15 51/125/15 79/124/15 
f 85/139/15 83/122/15 51/125/15 
f 53/140/1 56/141/1 58/142/1 86/143/1 
f 58/142/1 60/144/1 62/145/1 66/146/1 
f 62/145/1 64/147/1 66/146/1 
f 66/146/1 68/148/1 70/149/1 74/150/1 
f 70/149/1 72/151/1 74/150/1 
f 74/150/1 76/152/1 78/153/1 82/154/1 
f 78/153/1 80/155/1 82/154/1 
f 66/146/1 74/150/1 82/154/1 58/142/1 
f 82/154/1 84/156/1 86/143/1 58/142/1 
f 54/157/1 53/140/1 86/143/1 
usemtl Laminate
f 87/158/1 26/159/1 24/160/1 88/161/54 
f 50/162/55 18/163/56 11/11/3 10/10/2 
s 2
f 89/164/57 90/165/58 91/166/59 92/167/60 
s 1
f 91/168/61 22/169/62 20/170/63 92/171/64 
f 19/172/65 49/173/66 32/10/14 16/42/15 
f 23/174/67 90/175/68 89/176/69 21/177/70 
f 25/178/15 27/179/15 93/180/15 94/161/71 
s 2
f 49/81/34 89/164/57 92/167/60 50/82/35 
s 1
f 92/171/64 20/170/63 18/163/56 50/162/55 
f 19/172/65 21/177/70 89/176/69 49/173/66 
s 2
f 90/165/58 94/33/72 88/32/73 91/166/59 
s 1
f 88/161/54 24/160/1 22/169/62 91/168/61 
f 23/174/67 25/178/15 94/161/71 90/175/68 
s 2
f 88/32/73 94/33/72 93/181/33 87/182/33 
s 1
f 87/158/1 46/183/1 28/184/1 26/159/1 
f 29/185/74 47/186/74 93/180/15 27/179/15 
s 2
f 87/182/33 93/181/33 47/78/33 46/77/33 
s 1
f 46/183/1 45/187/1 30/188/1 28/184/1 
f 29/185/74 31/189/75 48/190/74 47/186/74 
f 95/12/1 96/13/1 97/11/76 98/8/1 
f 97/11/76 99/10/77 98/8/1 
f 98/8/1 100/9/1 101/7/1 102/4/1 
f 101/7/1 103/6/1 102/4/1 
f 95/12/1 98/8/1 102/4/1 104/1/1 
f 102/4/1 105/5/1 106/3/1 104/1/1 
f 106/3/1 107/2/1 104/1/1 
f 108/14/1 95/12/1 104/1/1 109/15/1 
s 2
f 97/16/78 96/19/79 110/18/79 111/17/78 
f 97/16/78 111/17/78 112/21/80 113/20/80 
f 114/22/81 113/20/80 112/21/80 115/23/81 
f 116/24/82 114/22/81 115/23/81 117/25/82 
f 116/24/82 117/25/82 118/27/83 119/26/83 
f 119/26/83 118/27/83 120/29/84 121/28/84 
f 121/28/84 120/29/84 122/31/85 123/30/85 
f 122/31/85 31/33/13 30/32/12 123/30/85 
s 1
f 124/46/15 125/47/15 126/41/15 127/45/15 
f 128/35/15 129/34/15 130/10/86 131/36/15 
f 132/37/15 131/36/15 130/10/86 133/38/15 
f 134/39/15 133/38/15 130/10/86 135/40/15 
f 126/41/15 135/40/15 130/10/86 111/42/15 
f 126/41/15 111/42/15 110/43/15 136/44/15 
f 126/41/15 136/44/15 127/45/15 
s 2
f 98/48/87 99/51/88 130/50/89 129/49/87 
f 100/52/90 98/48/87 129/49/87 128/53/90 
f 101/54/91 100/52/90 128/53/90 131/55/91 
f 103/56/92 101/54/91 131/55/91 132/57/92 
f 102/58/93 103/56/92 132/57/92 133/59/93 
f 102/58/93 133/59/93 134/61/94 105/60/94 
f 106/62/95 105/60/94 134/61/94 135/63/95 
f 106/62/95 135/63/95 126/65/96 107/64/97 
f 107/64/97 126/65/96 125/67/98 104/66/99 
f 104/66/99 125/67/98 124/69/100 109/68/100 
f 109/68/100 124/69/100 127/71/101 108/70/101 
f 108/70/101 127/71/101 136/73/102 95/72/102 
f 95/72/102 136/73/102 110/75/79 96/74/79 
f 45/76/32 48/79/32 137/78/103 138/77/103 
f 130/80/89 99/83/88 139/82/104 140/81/105 
usemtl Metal
f 141/84/106 142/87/106 143/86/44 144/85/44 
f 144/85/44 143/86/44 145/89/43 146/88/43 
f 146/88/43 145/89/43 147/91/42 148/90/42 
f 148/90/42 147/91/42 149/93/41 150/92/41 
f 150/92/41 149/93/41 151/95/40 152/94/40 
f 152/96/40 151/99/40 153/98/39 154/97/39 
f 154/97/39 153/98/39 155/101/38 156/100/38 
f 156/100/38 155/101/38 157/103/37 158/102/37 
f 158/102/37 157/103/37 159/105/107 160/104/36 
f 160/104/36 159/105/107 161/107/53 162/106/53 
f 162/106/53 161/107/53 163/109/52 164/108/52 
f 164/108/52 163/109/52 165/111/51 166/110/51 
f 166/110/51 165/111/51 167/113/50 168/112/50 
f 168/112/50 167/113/50 169/115/49 170/114/49 
f 170/114/49 169/115/49 171/117/48 172/116/48 
f 172/116/48 171/117/48 173/119/47 174/118/47 
f 174/118/47 173/119/47 175/121/46 176/120/46 
f 176/120/46 175/121/46 142/87/106 141/84/106 
s 1
f 141/125/15 144/138/15 146/136/15 170/124/15 
f 146/136/15 148/137/15 150/135/15 154/132/15 
f 150/135/15 152/134/15 154/132/15 
f 154/132/15 156/133/15 158/131/15 162/128/15 
f 158/131/15 160/130/15 162/128/15 
f 146/136/15 154/132/15 162/128/15 170/124/15 
f 162/128/15 164/129/15 166/127/15 170/124/15 
f 166/127/15 168/126/15 170/124/15 
f 170/124/15 172/123/15 174/122/15 141/125/15 
f 176/139/15 141/125/15 174/122/15 
f 175/143/1 173/156/1 171/154/1 147/142/1 
f 171/154/1 169/155/1 167/153/1 163/150/1 
f 167/153/1 165/152/1 163/150/1 
f 163/150/1 161/151/1 159/149/1 155/146/1 
f 159/149/1 157/148/1 155/146/1 
f 171/154/1 163/150/1 155/146/1 147/142/1 
f 155/146/1 153/147/1 151/145/1 147/142/1 
f 151/145/1 149/144/1 147/142/1 
f 147/142/1 145/141/1 143/140/1 175/143/1 
f 142/157/1 175/143/1 143/140/1 
usemtl Laminate
f 177/158/1 178/161/108 119/160/1 121/159/1 
f 139/162/109 99/10/77 97/11/76 113/163/110 
s 2
f 179/164/111 180/167/112 181/166/113 182/165/114 
s 1
f 181/168/115 180/171/116 114/170/117 116/169/118 
f 112/172/119 111/42/15 130/10/86 140/173/120 
f 117/174/121 115/177/122 179/176/123 182/175/124 
f 118/178/15 183/161/125 184/180/15 120/179/15 
s 2
f 140/81/105 139/82/104 180/167/112 179/164/111 
s 1
f 180/171/116 139/162/109 113/163/110 114/170/117 
f 112/172/119 140/173/120 179/176/123 115/177/122 
s 2
f 182/165/114 181/166/113 178/32/126 183/33/127 
s 1
f 178/161/108 181/168/115 116/169/118 119/160/1 
f 117/174/121 182/175/124 183/161/125 118/178/15 
s 2
f 178/32/126 177/182/103 184/181/103 183/33/127 
s 1
f 177/158/1 121/159/1 123/184/1 138/183/1 
f 122/185/15 120/179/15 184/180/15 137/186/15 
s 2
f 177/182/103 138/77/103 137/78/103 184/181/103 
s 1
f 138/183/1 123/184/1 30/188/1 45/187/1 
f 122/185/15 137/186/15 48/190/74 31/189/75 
# 166 polygons - 24 triangles

