# Max2Obj Version 4.0 Mar 10th, 2001
#
mtllib ./OmniLight.mtl
g
# object (null) to come ...
#
v  0 0.028 0
v  0 0.021449 -0.017998
v  -0.011569 0.021449 -0.013787
v  -0.017725 0.021449 -0.003125
v  -0.015587 0.021449 0.008999
v  -0.006156 0.021449 0.016913
v  0.006156 0.021449 0.016913
v  0.015587 0.021449 0.008999
v  0.017725 0.021449 -0.003125
v  0.011569 0.021449 -0.013787
v  0 0.004862 -0.027575
v  -0.017725 0.004862 -0.021123
v  -0.027156 0.004862 -0.004788
v  -0.02388 0.004862 0.013787
v  -0.009431 0.004862 0.025912
v  0.009431 0.004862 0.025912
v  0.02388 0.004862 0.013787
v  0.027156 0.004862 -0.004788
v  0.017725 0.004862 -0.021123
v  0 -0.014 -0.024249
v  -0.015587 -0.014 -0.018576
v  -0.02388 -0.014 -0.004211
v  -0.021 -0.014 0.012124
v  -0.008294 -0.014 0.022786
v  0.008294 -0.014 0.022786
v  0.021 -0.014 0.012124
v  0.02388 -0.014 -0.004211
v  0.015587 -0.014 -0.018576
v  0 -0.028 0
# 29 vertices

vn  0 1 0
vn  0 0.730416 -0.683002
vn  -0.439025 0.730416 -0.52321
vn  -0.672626 0.730416 -0.118602
vn  -0.591497 0.730416 0.341501
vn  -0.2336 0.730416 0.641812
vn  0.233601 0.730416 0.641812
vn  0.591497 0.730416 0.341501
vn  0.672626 0.730416 -0.118602
vn  0.439025 0.730416 -0.52321
vn  0 0.16213 -0.986769
vn  -0.634283 0.16213 -0.755909
vn  -0.971778 0.16213 -0.171351
vn  -0.854567 0.16213 0.493385
vn  -0.337495 0.16213 0.92726
vn  0.337495 0.16213 0.92726
vn  0.854567 0.16213 0.493384
vn  0.971778 0.16213 -0.171351
vn  0.634283 0.16213 -0.755909
vn  0 -0.53386 -0.845573
vn  -0.543524 -0.53386 -0.647746
vn  -0.832727 -0.53386 -0.146832
vn  -0.732287 -0.53386 0.422786
vn  -0.289203 -0.53386 0.794578
vn  0.289203 -0.53386 0.794578
vn  0.732288 -0.53386 0.422786
vn  0.832726 -0.53386 -0.146832
vn  0.543523 -0.53386 -0.647746
vn  0 -1 0
# 29 vertex normals

g (null)
usemtl Bulb
f -29//-29 -28//-28 -27//-27
f -29//-29 -27//-27 -26//-26
f -29//-29 -26//-26 -25//-25
f -29//-29 -25//-25 -24//-24
f -29//-29 -24//-24 -23//-23
f -29//-29 -23//-23 -22//-22
f -29//-29 -22//-22 -21//-21
f -29//-29 -21//-21 -20//-20
f -29//-29 -20//-20 -28//-28
f -28//-28 -19//-19 -18//-18
f -28//-28 -18//-18 -27//-27
f -27//-27 -18//-18 -17//-17
f -27//-27 -17//-17 -26//-26
f -26//-26 -17//-17 -16//-16
f -26//-26 -16//-16 -25//-25
f -25//-25 -16//-16 -15//-15
f -25//-25 -15//-15 -24//-24
f -24//-24 -15//-15 -14//-14
f -24//-24 -14//-14 -23//-23
f -23//-23 -14//-14 -13//-13
f -23//-23 -13//-13 -22//-22
f -22//-22 -13//-13 -12//-12
f -22//-22 -12//-12 -21//-21
f -21//-21 -12//-12 -11//-11
f -21//-21 -11//-11 -20//-20
f -20//-20 -11//-11 -19//-19
f -20//-20 -19//-19 -28//-28
f -19//-19 -10//-10 -9//-9
f -19//-19 -9//-9 -18//-18
f -18//-18 -9//-9 -8//-8
f -18//-18 -8//-8 -17//-17
f -17//-17 -8//-8 -7//-7
f -17//-17 -7//-7 -16//-16
f -16//-16 -7//-7 -6//-6
f -16//-16 -6//-6 -15//-15
f -15//-15 -6//-6 -5//-5
f -15//-15 -5//-5 -14//-14
f -14//-14 -5//-5 -4//-4
f -14//-14 -4//-4 -13//-13
f -13//-13 -4//-4 -3//-3
f -13//-13 -3//-3 -12//-12
f -12//-12 -3//-3 -2//-2
f -12//-12 -2//-2 -11//-11
f -11//-11 -2//-2 -10//-10
f -11//-11 -10//-10 -19//-19
f -1//-1 -9//-9 -10//-10
f -1//-1 -8//-8 -9//-9
f -1//-1 -7//-7 -8//-8
f -1//-1 -6//-6 -7//-7
f -1//-1 -5//-5 -6//-6
f -1//-1 -4//-4 -5//-5
f -1//-1 -3//-3 -4//-4
f -1//-1 -2//-2 -3//-3
f -1//-1 -10//-10 -2//-2
# 54 faces

g
