mtllib street_cone.mtl
o street_cone.obj
g object0
v 0.275698 -0.363899 0.000190688
vn 0.805885 -0.581599 -0.110869
v 0.275698 -0.269025 0.000125176
vn 0.798347 0.599885 0.0527341
v 0.208764 -0.245983 4.39088e-005
vn 0.732732 0.678798 -0.0483334
v 0.194948 -0.363764 0.195139
vn 0.648527 -0.581183 0.491568
v 0.194948 -0.26889 0.195074
vn 0.526449 0.600949 0.601425
v 0.147619 -0.245983 0.147663
vn 0.551854 0.679487 0.483482
v 2.74379e-008 -0.363708 0.27589
vn 0.111271 -0.580967 0.806286
v 3.25401e-008 -0.268835 0.275825
vn -0.0533906 0.60149 0.797094
v 1.54379e-008 -0.245983 0.208809
vn 0.0481685 0.679628 0.731974
v -0.194948 -0.363764 0.195139
vn -0.491169 -0.581074 0.648926
v -0.194948 -0.26889 0.195074
vn -0.601702 0.601189 0.525858
v -0.147619 -0.245983 0.147663
vn -0.484041 0.679137 0.551794
v -0.275698 -0.363899 0.000190616
vn -0.805885 -0.581446 0.111671
v -0.275698 -0.269025 0.000125104
vn -0.798033 0.600225 -0.0535931
v -0.208764 -0.245983 4.39089e-005
vn -0.73323 0.678304 0.0477208
v -0.194948 -0.364034 -0.194758
vn -0.648526 -0.58186 -0.490767
v -0.194948 -0.269159 -0.194823
vn -0.527179 0.599163 -0.602566
v -0.147619 -0.245983 -0.147575
vn -0.552656 0.677618 -0.485186
v -4.0615e-008 -0.364089 -0.275507
vn -0.111269 -0.582079 -0.805483
v -3.55127e-008 -0.269216 -0.275573
vn 0.0529381 0.598621 -0.799281
v 1.81585e-008 -0.245983 -0.208719
vn -0.0478833 0.677476 -0.733984
v 0.194948 -0.364034 -0.194757
vn 0.491167 -0.581971 -0.648124
v 0.194948 -0.269159 -0.194823
vn 0.602294 0.598922 -0.527764
v 0.147619 -0.245983 -0.147575
vn 0.484629 0.677967 -0.552716
v 3.50826e-008 0.369094 -0.0731436
vn 0.182802 0.808151 -0.559888
v 0.0517081 0.369094 -0.0517259
vn 0.525135 0.808174 -0.266622
v -0.0517081 0.369094 -0.0517259
vn -0.266623 0.808163 -0.525153
v -0.0731264 0.369094 -1.78448e-005
vn -0.559822 0.8082 -0.182791
v -0.0517081 0.369094 0.0516903
vn -0.525058 0.808241 0.266571
v 3.41296e-008 0.369094 0.0731085
vn -0.182768 0.808264 0.559737
v 0.0517081 0.369094 0.0516903
vn 0.26657 0.808253 0.52504
v 0.0731264 0.369094 -1.78449e-005
vn 0.559803 0.808216 0.182778
v 3.94161e-008 0.260872 -1.77493e-005
vn -2.39182e-007 1 1.70241e-006
v 1.40972e-008 -0.363899 0.00019095
vn -3.15481e-010 -1 0.000690603

usemtl Material0
vt 0 0
vt 0 1
vt 1 1
f 4/1/4 1/2/1 2/3/2 
vt 0 0
vt 0 1
vt 1 1
f 4/4/4 2/5/2 5/6/5 
vt 0 0
vt 0 1
vt 1 1
f 5/7/5 2/8/2 3/9/3 
vt 0 0
vt 0 1
vt 1 1
f 5/10/5 3/11/3 6/12/6 
vt 0 0
vt 0 1
vt 1 1
f 7/13/7 4/14/4 5/15/5 
vt 0 0
vt 0 1
vt 1 1
f 7/16/7 5/17/5 8/18/8 
vt 0 0
vt 0 1
vt 1 1
f 8/19/8 5/20/5 6/21/6 
vt 0 0
vt 0 1
vt 1 1
f 8/22/8 6/23/6 9/24/9 
vt 0 0
vt 0 1
vt 1 1
f 10/25/10 7/26/7 8/27/8 
vt 0 0
vt 0 1
vt 1 1
f 10/28/10 8/29/8 11/30/11 
vt 0 0
vt 0 1
vt 1 1
f 11/31/11 8/32/8 9/33/9 
vt 0 0
vt 0 1
vt 1 1
f 11/34/11 9/35/9 12/36/12 
vt 0 0
vt 0 1
vt 1 1
f 13/37/13 10/38/10 11/39/11 
vt 0 0
vt 0 1
vt 1 1
f 13/40/13 11/41/11 14/42/14 
vt 0 0
vt 0 1
vt 1 1
f 14/43/14 11/44/11 12/45/12 
vt 0 0
vt 0 1
vt 1 1
f 14/46/14 12/47/12 15/48/15 
vt 0 0
vt 0 1
vt 1 1
f 16/49/16 13/50/13 14/51/14 
vt 0 0
vt 0 1
vt 1 1
f 16/52/16 14/53/14 17/54/17 
vt 0 0
vt 0 1
vt 1 1
f 17/55/17 14/56/14 15/57/15 
vt 0 0
vt 0 1
vt 1 1
f 17/58/17 15/59/15 18/60/18 
vt 0 0
vt 0 1
vt 1 1
f 19/61/19 16/62/16 17/63/17 
vt 0 0
vt 0 1
vt 1 1
f 19/64/19 17/65/17 20/66/20 
vt 0 0
vt 0 1
vt 1 1
f 20/67/20 17/68/17 18/69/18 
vt 0 0
vt 0 1
vt 1 1
f 20/70/20 18/71/18 21/72/21 
vt 0 0
vt 0 1
vt 1 1
f 22/73/22 19/74/19 20/75/20 
vt 0 0
vt 0 1
vt 1 1
f 22/76/22 20/77/20 23/78/23 
vt 0 0
vt 0 1
vt 1 1
f 23/79/23 20/80/20 21/81/21 
vt 0 0
vt 0 1
vt 1 1
f 23/82/23 21/83/21 24/84/24 
vt 0 0
vt 0 1
vt 1 1
f 1/85/1 22/86/22 23/87/23 
vt 0 0
vt 0 1
vt 1 1
f 1/88/1 23/89/23 2/90/2 
vt 0 0
vt 0 1
vt 1 1
f 2/91/2 23/92/23 24/93/24 
vt 0 0
vt 0 1
vt 1 1
f 2/94/2 24/95/24 3/96/3 
vt 0 0
vt 0 1
vt 1 1
f 26/97/26 33/98/33 32/99/32 
vt 0 0
vt 0 1
vt 1 1
f 1/100/1 34/101/34 22/102/22 
vt 0 0
vt 0 1
vt 1 1
f 33/103/33 28/104/28 29/105/29 
vt 0 0
vt 0 1
vt 1 1
f 33/106/33 29/107/29 30/108/30 
vt 0 0
vt 0 1
vt 1 1
f 33/109/33 30/110/30 31/111/31 
vt 0 0
vt 0 1
vt 1 1
f 33/112/33 31/113/31 32/114/32 
vt 0 0
vt 0 1
vt 1 1
f 33/115/33 26/116/26 25/117/25 
vt 0 0
vt 0 1
vt 1 1
f 33/118/33 25/119/25 27/120/27 
vt 0 0
vt 0 1
vt 1 1
f 33/121/33 27/122/27 28/123/28 
vt 0 0
vt 0 1
vt 1 1
f 34/124/34 13/125/13 16/126/16 
vt 0 0
vt 0 1
vt 1 1
f 1/127/1 4/128/4 34/129/34 
vt 0 0
vt 0 1
vt 1 1
f 34/130/34 19/131/19 22/132/22 
vt 0 0
vt 0 1
vt 1 1
f 34/133/34 16/134/16 19/135/19 
vt 0 0
vt 0 1
vt 1 1
f 34/136/34 10/137/10 13/138/13 
vt 0 0
vt 0 1
vt 1 1
f 34/139/34 7/140/7 10/141/10 
vt 0 0
vt 0 1
vt 1 1
f 34/142/34 4/143/4 7/144/7 
vt 0 0
vt 0 1
vt 1 1
f 24/145/24 21/146/21 25/147/25 
vt 0 0
vt 0 1
vt 1 1
f 24/148/24 25/149/25 26/150/26 
vt 0 0
vt 0 1
vt 1 1
f 21/151/21 18/152/18 27/153/27 
vt 0 0
vt 0 1
vt 1 1
f 21/154/21 27/155/27 25/156/25 
vt 0 0
vt 0 1
vt 1 1
f 18/157/18 15/158/15 28/159/28 
vt 0 0
vt 0 1
vt 1 1
f 18/160/18 28/161/28 27/162/27 
vt 0 0
vt 0 1
vt 1 1
f 15/163/15 12/164/12 29/165/29 
vt 0 0
vt 0 1
vt 1 1
f 15/166/15 29/167/29 28/168/28 
vt 0 0
vt 0 1
vt 1 1
f 12/169/12 9/170/9 30/171/30 
vt 0 0
vt 0 1
vt 1 1
f 12/172/12 30/173/30 29/174/29 
vt 0 0
vt 0 1
vt 1 1
f 9/175/9 6/176/6 31/177/31 
vt 0 0
vt 0 1
vt 1 1
f 9/178/9 31/179/31 30/180/30 
vt 0 0
vt 0 1
vt 1 1
f 6/181/6 3/182/3 32/183/32 
vt 0 0
vt 0 1
vt 1 1
f 6/184/6 32/185/32 31/186/31 
vt 0 0
vt 0 1
vt 1 1
f 3/187/3 24/188/24 26/189/26 
vt 0 0
vt 0 1
vt 1 1
f 3/190/3 26/191/26 32/192/32 
